<?xml version="1.0" encoding="UTF-8"?>
<svg xmlns="http://www.w3.org/2000/svg" viewBox="0 0 200 120" width="200" height="120">
  <defs>
    <linearGradient id="truckGradient" x1="0%" y1="0%" x2="100%" y2="100%">
      <stop offset="0%" style="stop-color:#2563eb;stop-opacity:1" />
      <stop offset="100%" style="stop-color:#1d4ed8;stop-opacity:1" />
    </linearGradient>
    <linearGradient id="wheelGradient" x1="0%" y1="0%" x2="100%" y2="100%">
      <stop offset="0%" style="stop-color:#374151;stop-opacity:1" />
      <stop offset="100%" style="stop-color:#1f2937;stop-opacity:1" />
    </linearGradient>
  </defs>
  
  <!-- Truck Body -->
  <rect x="20" y="40" width="120" height="40" rx="4" fill="url(#truckGradient)" stroke="#1e40af" stroke-width="1"/>
  
  <!-- Truck Cab -->
  <rect x="140" y="30" width="40" height="50" rx="4" fill="url(#truckGradient)" stroke="#1e40af" stroke-width="1"/>
  
  <!-- Windshield -->
  <rect x="145" y="35" width="30" height="20" rx="2" fill="#e5e7eb" stroke="#9ca3af" stroke-width="1"/>
  
  <!-- Front Grille -->
  <rect x="175" y="45" width="5" height="20" fill="#374151"/>
  <line x1="177" y1="48" x2="177" y2="62" stroke="#6b7280" stroke-width="1"/>
  
  <!-- Wheels -->
  <circle cx="50" cy="90" r="12" fill="url(#wheelGradient)" stroke="#111827" stroke-width="2"/>
  <circle cx="50" cy="90" r="6" fill="#6b7280"/>
  
  <circle cx="110" cy="90" r="12" fill="url(#wheelGradient)" stroke="#111827" stroke-width="2"/>
  <circle cx="110" cy="90" r="6" fill="#6b7280"/>
  
  <circle cx="160" cy="90" r="12" fill="url(#wheelGradient)" stroke="#111827" stroke-width="2"/>
  <circle cx="160" cy="90" r="6" fill="#6b7280"/>
  
  <!-- Headlight -->
  <circle cx="175" cy="40" r="4" fill="#fbbf24" stroke="#f59e0b" stroke-width="1"/>
  
  <!-- Side Details -->
  <rect x="25" y="45" width="110" height="2" fill="#1e40af"/>
  <rect x="25" y="70" width="110" height="2" fill="#1e40af"/>
  
  <!-- Door Handle -->
  <rect x="150" y="55" width="3" height="8" rx="1" fill="#374151"/>
</svg>